<?xml version="1.0" encoding="UTF-8" standalone="no"?>
<!-- Created with Inkscape (http://www.inkscape.org/) -->

<svg
   width="256mm"
   height="256mm"
   viewBox="0 0 256 256"
   version="1.1"
   id="svg1"
   inkscape:version="1.3 (1:1.3+202307231459+0e150ed6c4)"
   sodipodi:docname="octagondifference.svg"
   xmlns:inkscape="http://www.inkscape.org/namespaces/inkscape"
   xmlns:sodipodi="http://sodipodi.sourceforge.net/DTD/sodipodi-0.dtd"
   xmlns="http://www.w3.org/2000/svg"
   xmlns:svg="http://www.w3.org/2000/svg">
  <sodipodi:namedview
     id="namedview1"
     pagecolor="#000000"
     bordercolor="#000000"
     borderopacity="0.25"
     inkscape:showpageshadow="2"
     inkscape:pageopacity="0.0"
     inkscape:pagecheckerboard="0"
     inkscape:deskcolor="#d1d1d1"
     inkscape:document-units="mm"
     inkscape:zoom="1.0691286"
     inkscape:cx="432.12764"
     inkscape:cy="544.36859"
     inkscape:window-width="2490"
     inkscape:window-height="1376"
     inkscape:window-x="1920"
     inkscape:window-y="27"
     inkscape:window-maximized="1"
     inkscape:current-layer="layer2" />
  <defs
     id="defs1" />
  <g
     inkscape:label="Layer 1"
     inkscape:groupmode="layer"
     id="layer1"
     style="display:inline" />
  <g
     inkscape:groupmode="layer"
     id="layer2"
     inkscape:label="Layer 2">
    <path
       id="path2"
       style="display:inline;fill:#ffffff;fill-opacity:1;stroke-width:0.264583;stroke-dasharray:none"
       d="M 7.0103429 -150.42459 L -104.31811 -104.31101 L -150.4317 7.0174524 L -104.31811 118.34591 L 7.0103429 164.4595 L 118.3388 118.34591 L 164.45239 7.0174524 L 118.3388 -104.31101 L 7.0103429 -150.42459 z M 7.0097073 -145.50483 L 7.0097073 -145.50419 L 35.441378 -133.7279 L 23.66445 -105.29623 L 23.661908 -105.2975 L 23.661908 -105.29623 L -9.6405861 -105.29623 L -9.6405861 -105.29814 L -9.6450355 -105.29623 L -21.421328 -133.7279 L 7.0097073 -145.50483 z M -95.081158 -98.148585 L 109.10184 -98.148585 L 109.10184 -55.09809 L 102.9515 -55.09809 L 102.9515 -30.620665 L -88.930815 -30.620665 L -88.930815 -55.09809 L -95.081158 -55.09809 L -95.081158 -98.148585 z M -95.081158 -21.725041 L 109.10184 -21.725041 L 109.10184 108.77525 L -95.081158 108.77525 L -95.081158 -21.725041 z M -133.73501 -21.414219 L -105.30334 -9.6372904 L -105.30461 -9.6347479 L -105.30334 -9.6347479 L -105.30334 23.667746 L -105.30461 23.667746 L -105.30334 23.67156 L -133.73501 35.448488 L -145.51194 7.0174524 L -133.73501 -21.414219 z M 147.75633 -21.414219 L 159.53262 7.0168168 L 147.75633 35.448488 L 119.32466 23.67156 L 119.32593 23.669017 L 119.32466 23.669017 L 119.32466 -9.6334766 L 119.32657 -9.6334766 L 119.32466 -9.637926 L 147.75633 -21.414219 z M -9.6443999 119.33177 L -9.6418574 119.33304 L -9.6418574 119.33177 L 23.660636 119.33177 L 23.660636 119.33304 L 23.66445 119.33177 L 35.441378 147.76344 L 7.0103429 159.53973 L -21.421328 147.76344 L -9.6443999 119.33177 z "
       transform="matrix(0.81299717,0,0,0.81299717,122.30055,122.29477)" />
    <g
       id="g3"
       inkscape:label="stat thing L"
       transform="translate(0,0.02500285)" />
    <g
       id="g6"
       inkscape:label="stat thing R"
       transform="rotate(180,128.00018,127.98702)" />
    <g
       id="g9"
       inkscape:label="stat thing L"
       transform="rotate(90,127.98702,127.98703)" />
    <g
       id="g12"
       inkscape:label="stat thing L"
       transform="rotate(-90,128.01268,127.98767)" />
  </g>
</svg>
